<svg xmlns="http://www.w3.org/2000/svg" width="32" height="32" viewBox="0 0 32 32">
  <path fill="#F7931A" d="M31.5,16c0,8.563-6.938,15.5-15.5,15.5C7.437,31.5,0.5,24.563,0.5,16C0.5,7.437,7.437,0.5,16,0.5
    C24.563,0.5,31.5,7.437,31.5,16z"/>
  <path fill="#FFFFFF" d="M23.047,14.262c0.31-2.066-1.265-3.178-3.415-3.921l0.698-2.797l-1.703-0.425l-0.679,2.723
    c-0.448-0.112-0.908-0.217-1.367-0.321l0.684-2.74l-1.702-0.425l-0.698,2.797c-0.37-0.084-0.734-0.168-1.087-0.255l0.002-0.009
    l-2.349-0.587l-0.453,1.818c0,0,1.265,0.29,1.239,0.308c0.691,0.173,0.817,0.631,0.796,0.994l-0.797,3.197
    c0.048,0.012,0.109,0.029,0.177,0.056l-0.18-0.045l-1.117,4.478c-0.085,0.21-0.299,0.525-0.782,0.406
    c0.017,0.025-1.24-0.31-1.24-0.31l-0.846,1.953l2.215,0.553c0.412,0.103,0.816,0.211,1.213,0.313l-0.706,2.832l1.701,0.425
    l0.698-2.799c0.465,0.126,0.917,0.243,1.359,0.353l-0.695,2.783l1.703,0.425l0.706-2.826c2.908,0.55,5.095,0.328,6.017-2.301
    c0.744-2.12-0.037-3.344-1.571-4.139C22.044,16.716,22.82,15.766,23.047,14.262z M19.357,19.243
    c-0.529,2.12-4.099,0.975-5.259,0.687l0.938-3.762C16.197,16.456,19.912,17.022,19.357,19.243z M19.886,14.234
    c-0.482,1.931-3.454,0.95-4.417,0.709l0.851-3.412C17.283,11.772,20.391,12.214,19.886,14.234z"/>
</svg>